<?xml version="1.0" encoding="UTF-8" standalone="no" ?>
<!DOCTYPE svg PUBLIC "-//W3C//DTD SVG 1.1//EN" "http://www.w3.org/Graphics/SVG/1.1/DTD/svg11.dtd">
<svg xmlns="http://www.w3.org/2000/svg" xmlns:xlink="http://www.w3.org/1999/xlink" version="1.1" width="1400" height="1400" viewBox="0 0 1400 1400" xml:space="preserve">
<desc>Created with Fabric.js 5.3.0</desc>
<defs>
</defs>
<g transform="matrix(1 0 0 1 904.710960521 700)" id="GhRdhyDMTBV66mLNyWc5B"  >
<g style="" vector-effect="non-scaling-stroke"   >
		<g transform="matrix(1.3665568362 0 0 1.3665568331 49.0709031684 427.8833739653)" id="gIZjVNvFZESNHnFwiGtnH"  >
<g style="" vector-effect="non-scaling-stroke"   >
		<g transform="matrix(1 0 0 0.4278810439 0.1403900767 80.1587891279)" id="YFeKq9-0xAQI6a3UbdYQB"  >
<linearGradient id="SVGID_3558" gradientUnits="userSpaceOnUse" gradientTransform="matrix(1 0 0 1 0 0)"  x1="17.857142857142634" y1="140.51373774073568" x2="339.8423881318681" y2="452.5115882298271">
<stop offset="0%" style="stop-color:#FFFFFF;stop-opacity: 1"/>
<stop offset="50%" style="stop-color:#7e7e7e;stop-opacity: 1"/>
<stop offset="100%" style="stop-color:#000000;stop-opacity: 1"/>
</linearGradient>
<path style="stroke: rgb(116,244,255); stroke-width: 0; stroke-dasharray: none; stroke-linecap: butt; stroke-dashoffset: 0; stroke-linejoin: miter; stroke-miterlimit: 4; fill: url(#SVGID_3558); fill-rule: nonzero; opacity: 1;" vector-effect="non-scaling-stroke"  transform=" translate(-198.35526, -259.225115)" d="M 396.71052 305.89276 C 396.71052 423.22448 307.84736 518.45023 198.35526 518.45023 C 88.86314999999999 518.45023 0 423.22448 0 305.89276000000007 C 0 303.21796000000006 0.04618 300.55464000000006 0.13774 297.90368000000007 L 0.000019999999999992246 297.90368000000007 L 0.000019999999999992246 5.684341886080802e-14 L 396.71052000000003 5.684341886080802e-14 L 396.71052000000003 297.90368000000007 L 396.57278 297.90368000000007 C 396.66434000000004 300.55464000000006 396.71052000000003 303.2179500000001 396.71052000000003 305.89276000000007 z" stroke-linecap="round" />
</g>
		<g transform="matrix(1.34 0 0 0.6478483583 -0.1403812767 -33.3220349765)" id="jcm_mBAbVbhX2Jv9Wjy93"  >
<linearGradient id="SVGID_3559" gradientUnits="userSpaceOnUse" gradientTransform="matrix(1 0 0 1 -148.02632 -148.02632)"  x1="15.8222493857063" y1="86.84646548869341" x2="269.6822159361029" y2="209.20616609025421">
<stop offset="0%" style="stop-color:#70B9BC;stop-opacity: 1"/>
<stop offset="50%" style="stop-color:#34797C;stop-opacity: 1"/>
<stop offset="100%" style="stop-color:#01383B;stop-opacity: 1"/>
</linearGradient>
<path style="stroke: rgb(128,176,77); stroke-width: 0; stroke-dasharray: none; stroke-linecap: butt; stroke-dashoffset: 0; stroke-linejoin: miter; stroke-miterlimit: 4; fill: url(#SVGID_3559); fill-rule: nonzero; opacity: 1;" vector-effect="non-scaling-stroke"  transform=" translate(0, 0)" d="M 0 -148.02632 C 81.71053 -148.02632 148.02632 -81.71052999999999 148.02632 0 C 148.02632 81.71053 81.71052999999999 148.02632 0 148.02632 C -81.71053 148.02632 -148.02632 81.71052999999999 -148.02632 0 C -148.02632 -81.71053 -81.71052999999999 -148.02632 0 -148.02632 z" stroke-linecap="round" />
</g>
		<g transform="matrix(0.6459546509 0 0 0.3102119634 -0.1403812767 -48.3220349765)" id="kZBGpT-KDoXluB0Dj7G4o"  >
<radialGradient id="SVGID_3560" gradientUnits="userSpaceOnUse" gradientTransform="matrix(1 0 0 1 -148.02632 -148.02632)"  cx="148.02632" cy="148.02632" r="148.02632" fx="148.02632" fy="148.02632">
<stop offset="0%" style="stop-color:#FFFFFF;stop-opacity: 1"/>
<stop offset="50%" style="stop-color:#92EAF1;stop-opacity: 1"/>
<stop offset="100%" style="stop-color:#1EFBF7;stop-opacity: 1"/>
</radialGradient>
<path style="stroke: rgb(0,198,255); stroke-width: 7; stroke-dasharray: none; stroke-linecap: butt; stroke-dashoffset: 0; stroke-linejoin: miter; stroke-miterlimit: 4; fill: url(#SVGID_3560); fill-rule: nonzero; opacity: 1;" vector-effect="non-scaling-stroke"  transform=" translate(0, 0)" d="M 0 -148.02632 C 81.71053 -148.02632 148.02632 -81.71052999999999 148.02632 0 C 148.02632 81.71053 81.71052999999999 148.02632 0 148.02632 C -81.71053 148.02632 -148.02632 81.71052999999999 -148.02632 0 C -148.02632 -81.71053 -81.71052999999999 -148.02632 0 -148.02632 z" stroke-linecap="round" />
</g>
		<g transform="matrix(1.0510096063 0 0 0.5047347412 0.1403900767 -48.3220349765)" id="eK3F9n3f5ncO7W4pDOUQQ"  >
<path style="stroke: rgb(0,255,224); stroke-width: 2; stroke-dasharray: none; stroke-linecap: butt; stroke-dashoffset: 0; stroke-linejoin: miter; stroke-miterlimit: 4; fill: rgb(112,185,188); fill-opacity: 0; fill-rule: nonzero; opacity: 1;" vector-effect="non-scaling-stroke"  transform=" translate(0, 0)" d="M 0 -148.02632 C 81.71053 -148.02632 148.02632 -81.71052999999999 148.02632 0 C 148.02632 81.71053 81.71052999999999 148.02632 0 148.02632 C -81.71053 148.02632 -148.02632 81.71052999999999 -148.02632 0 C -148.02632 -81.71053 -81.71052999999999 -148.02632 0 -148.02632 z" stroke-linecap="round" />
</g>
		<g transform="matrix(1 0 0 0.4802379904 -0.1403812767 -84.5415471502)" id="KSdMuC1D8IRKE7HOiZyPJ"  >
<path style="stroke: rgb(0,255,233); stroke-width: 2; stroke-dasharray: none; stroke-linecap: butt; stroke-dashoffset: 0; stroke-linejoin: miter; stroke-miterlimit: 4; fill: rgb(112,185,188); fill-opacity: 0; fill-rule: nonzero; opacity: 1;" vector-effect="non-scaling-stroke"  transform=" translate(0, 0)" d="M 0 -148.02632 C 81.71053 -148.02632 148.02632 -81.71052999999999 148.02632 0 C 148.02632 81.71053 81.71052999999999 148.02632 0 148.02632 C -81.71053 148.02632 -148.02632 81.71052999999999 -148.02632 0 C -148.02632 -81.71053 -81.71052999999999 -148.02632 0 -148.02632 z" stroke-linecap="round" />
</g>
		<g transform="matrix(0.9724182454 0 0 0.466992184 0.1403900767 -120.949167473)" id="SkVYsPgHdGfnjz5RA0q5K"  >
<path style="stroke: rgb(0,255,206); stroke-width: 2; stroke-dasharray: none; stroke-linecap: butt; stroke-dashoffset: 0; stroke-linejoin: miter; stroke-miterlimit: 4; fill: rgb(112,185,188); fill-opacity: 0; fill-rule: nonzero; opacity: 1;" vector-effect="non-scaling-stroke"  transform=" translate(0, 0)" d="M 0 -148.02632 C 81.71053 -148.02632 148.02632 -81.71052999999999 148.02632 0 C 148.02632 81.71053 81.71052999999999 148.02632 0 148.02632 C -81.71053 148.02632 -148.02632 81.71052999999999 -148.02632 0 C -148.02632 -81.71053 -81.71052999999999 -148.02632 0 -148.02632 z" stroke-linecap="round" />
</g>
</g>
</g>
		<g transform="matrix(1.3665568362 0 0 1.3665568331 -274.5896173913 -253.371327668)" id="I-c26MZU9O6EVivkksLgw"  >
<g style="" vector-effect="non-scaling-stroke"   >
		<g transform="matrix(0.6349598958 0.6809111244 -1.7375416519 1.6202838032 -8.8991813857 2.590818111)" id="Gc8Gk8EbRLatWoej7I44n"  >
<linearGradient id="SVGID_3561" gradientUnits="userSpaceOnUse" gradientTransform="matrix(1 0 0 1 -34.5663578446 -72.9648413067)"  x1="44.15584415584412" y1="9.036507016983506" x2="12.918730010904184" y2="128.51702649750294">
<stop offset="0%" style="stop-color:#A1E1A2;stop-opacity: 1"/>
<stop offset="50%" style="stop-color:#14AA17;stop-opacity: 1"/>
<stop offset="100%" style="stop-color:#5EDF57;stop-opacity: 1"/>
</linearGradient>
<path style="stroke: rgb(140,185,191); stroke-width: 0; stroke-dasharray: none; stroke-linecap: butt; stroke-dashoffset: 0; stroke-linejoin: miter; stroke-miterlimit: 4; fill: url(#SVGID_3561); fill-rule: nonzero; opacity: 1;" vector-effect="non-scaling-stroke"  transform=" translate(-4.049e-7, -0.0000010811)" d="M 31.40789 -69.48223 L 28.445909999999998 -52.68399 C 33.84471 -38.31297 36.615489999999994 -17.79298 32.79069 3.8985199999999978 C 28.965889999999998 25.59002 19.343959999999996 43.924839999999996 9.355569999999997 55.582679999999996 C 9.355569999999997 55.582679999999996 8.698329999999997 67.20644 8.374609999999997 72.93158 L 8.374609999999997 72.93158 C 8.374049999999997 72.94153 8.362389999999998 72.95088 8.342719999999996 72.95718 C 8.323049999999997 72.96347 8.297329999999997 72.96606999999999 8.272339999999996 72.9643 L -2.9844000000000044 72.16354 L -2.9844000000000044 72.16354 C -5.5690900000000045 71.97968 -7.964570000000005 71.50868 -9.885780000000004 70.8066 L -11.212120000000004 70.32191 L -12.189120000000004 69.10428 L -10.116760000000005 69.86159 C -10.271960000000005 69.84345 -8.563820000000005 71.26102 -8.715380000000005 71.2343 C -21.456850000000003 68.98763000000001 -39.974160000000005 31.439700000000002 -33.07021 -7.714529999999996 C -26.16626 -46.868759999999995 -0.3740800000000064 -75.08623999999999 12.367399999999996 -72.83958 C 12.518959999999996 -72.81286 12.670779999999997 -72.78144999999999 12.822819999999997 -72.74540999999999 L 12.825189999999997 -72.75886 z" stroke-linecap="round" />
</g>
		<g transform="matrix(-1.1544553197 0.9364346101 -0.0667436849 -0.1963427576 0 19.1203287884)" id="LP74qBnXMfS4lP5uZlbG4"  >
<linearGradient id="SVGID_3562" gradientUnits="userSpaceOnUse" gradientTransform="matrix(1 0 0 1 -113.63636 -162.11923)"  x1="217.97832386426595" y1="304.57928316050925" x2="36.8601987186328" y2="9.725508985127561">
<stop offset="0%" style="stop-color:#DEF1F1;stop-opacity: 1"/>
<stop offset="51.354034460072604%" style="stop-color:#99C5CD;stop-opacity: 1"/>
<stop offset="100%" style="stop-color:#3D6562;stop-opacity: 1"/>
</linearGradient>
<path style="stroke: rgb(140,185,191); stroke-width: 0; stroke-dasharray: none; stroke-linecap: butt; stroke-dashoffset: 0; stroke-linejoin: miter; stroke-miterlimit: 4; fill: url(#SVGID_3562); fill-rule: nonzero; opacity: 1;" vector-effect="non-scaling-stroke"  transform=" translate(0, 0)" d="M 0 -162.11923 C 62.72727 -162.11923 113.63636 -62.72727999999999 113.63636 0 C 113.63636 62.72727 62.72727 162.11923 0 162.11923 C -62.72727 162.11923 -113.63636 62.72727999999999 -113.63636 0 C -113.63636 -62.72727 -62.72727 -162.11923 0 -162.11923 z" stroke-linecap="round" />
</g>
		<g transform="matrix(0.6819983601 0.7313537016 -0.7313537016 0.6819983601 61.7423695632 -82.4190592756)" id="ac8G20mc57KlHqfNKPB3h"  >
<linearGradient id="SVGID_3563" gradientUnits="userSpaceOnUse" gradientTransform="matrix(1 0 0 1 0.00001215 -0.0000013067)"  x1="44.15584415584412" y1="9.036507016983506" x2="12.918730010904184" y2="128.51702649750294">
<stop offset="0%" style="stop-color:#A1E1A2;stop-opacity: 1"/>
<stop offset="50%" style="stop-color:#3BC63E;stop-opacity: 1"/>
<stop offset="100%" style="stop-color:#5EDF57;stop-opacity: 1"/>
</linearGradient>
<path style="stroke: rgb(140,185,191); stroke-width: 0; stroke-dasharray: none; stroke-linecap: butt; stroke-dashoffset: 0; stroke-linejoin: miter; stroke-miterlimit: 4; fill: url(#SVGID_3563); fill-rule: nonzero; opacity: 1;" vector-effect="non-scaling-stroke"  transform=" translate(-34.7061304022, -72.6728693467)" d="M 66.25378 3.48261 L 63.29180000000001 20.28085 C 68.6906 34.65187 71.46138 55.17186 67.63658000000001 76.86336 C 63.811780000000006 98.55486 54.18985000000001 116.88968 44.20146000000001 128.54752 L 41.239480000000015 145.34573999999998 L 22.656770000000016 142.06910999999997 L 22.659140000000015 142.05567999999997 C 22.503940000000014 142.03753999999998 22.350540000000017 142.01512999999997 22.198980000000017 141.98840999999996 C 9.457510000000017 139.74173999999996 -5.128269999999983 104.40453999999997 1.7756800000000155 65.25030999999996 C 8.679630000000015 26.096079999999958 34.47181000000001 -2.121400000000037 47.213290000000015 0.12525999999995463 C 47.36485000000002 0.15197999999995462 47.51667000000001 0.18338999999995464 47.66871000000001 0.21942999999995463 L 47.67108000000001 0.20597999999995464 z" stroke-linecap="round" />
</g>
		<g transform="matrix(-0.5315721474 0.3452069888 -0.1123364033 -0.1729828916 74.0424338916 -66.1752817418)" id="s8lBkL-aTtpA1ra362rgb"  >
<linearGradient id="SVGID_3564" gradientUnits="userSpaceOnUse" gradientTransform="matrix(1 0 0 1 -113.63636 -162.11923)"  x1="123.35141365534494" y1="459.79410811165303" x2="130.52998573538505" y2="20.57126144418882">
<stop offset="0%" style="stop-color:#94C8CA;stop-opacity: 1"/>
<stop offset="50%" style="stop-color:#277E7A;stop-opacity: 1"/>
<stop offset="100%" style="stop-color:#052B29;stop-opacity: 1"/>
</linearGradient>
<path style="stroke: rgb(140,185,191); stroke-width: 0; stroke-dasharray: none; stroke-linecap: butt; stroke-dashoffset: 0; stroke-linejoin: miter; stroke-miterlimit: 4; fill: url(#SVGID_3564); fill-rule: nonzero; opacity: 1;" vector-effect="non-scaling-stroke"  transform=" translate(0, 0)" d="M 0 -162.11923 C 62.72727 -162.11923 113.63636 -62.72727999999999 113.63636 0 C 113.63636 62.72727 62.72727 162.11923 0 162.11923 C -62.72727 162.11923 -113.63636 62.72727999999999 -113.63636 0 C -113.63636 -62.72727 -62.72727 -162.11923 0 -162.11923 z" stroke-linecap="round" />
</g>
		<g transform="matrix(0.1367679749 0.2467359581 -0.0955745473 0.0529778366 94.6788967441 -120.3081995881)" id="VMxU470oVDx7LuT_JgInt"  >
<path style="stroke: rgb(116,244,255); stroke-width: 0; stroke-dasharray: none; stroke-linecap: butt; stroke-dashoffset: 0; stroke-linejoin: miter; stroke-miterlimit: 4; fill: rgb(203,253,225); fill-rule: nonzero; opacity: 1;" vector-effect="non-scaling-stroke"  transform=" translate(0, 0.000005)" d="M -28.9291 -36.1735 L 38.38084 -35.95395 L 28.90842 29.591829999999995 L -38.38084 36.173489999999994 z" stroke-linecap="round" />
</g>
		<g transform="matrix(0.1934986225 0.1623646228 -0.0702409679 0.0837099259 -73.169302742 32.3523756549)" id="psZyuruU7ky30j5ar4REB"  >
<path style="stroke: rgb(116,244,255); stroke-width: 0; stroke-dasharray: none; stroke-linecap: butt; stroke-dashoffset: 0; stroke-linejoin: miter; stroke-miterlimit: 4; fill: rgb(171,235,199); fill-rule: nonzero; opacity: 1;" vector-effect="non-scaling-stroke"  transform=" translate(0, 0)" d="M -32.81768 -34.28497 L 34.492259999999995 -34.06542 L 30.483699999999995 32.714439999999996 L -34.49226 34.284969999999994 z" stroke-linecap="round" />
</g>
		<g transform="matrix(0.063157765 0.1139396241 -0.0441351344 0.0244645045 94.7208722915 -124.8104185633)" id="9F004ZTgox9Tc3va36NMz"  >
<path style="stroke: rgb(116,244,255); stroke-width: 0; stroke-dasharray: none; stroke-linecap: butt; stroke-dashoffset: 0; stroke-linejoin: miter; stroke-miterlimit: 4; fill: rgb(255,255,255); fill-rule: nonzero; opacity: 1;" vector-effect="non-scaling-stroke"  transform=" translate(0, 0.000005)" d="M -28.9291 -36.1735 L 38.38084 -35.95395 L 28.90842 29.591829999999995 L -38.38084 36.173489999999994 z" stroke-linecap="round" />
</g>
		<g transform="matrix(0.0997951626 0.0837380841 -0.0324364033 0.0386562001 -74.669049284 29.4400318021)" id="tCXHxM2srROtGKnxXgdQm"  >
<path style="stroke: rgb(116,244,255); stroke-width: 0; stroke-dasharray: none; stroke-linecap: butt; stroke-dashoffset: 0; stroke-linejoin: miter; stroke-miterlimit: 4; fill: rgb(255,255,255); fill-rule: nonzero; opacity: 1;" vector-effect="non-scaling-stroke"  transform=" translate(0, 0.000005)" d="M -28.9291 -36.1735 L 38.38084 -35.95395 L 28.90842 29.591829999999995 L -38.38084 36.173489999999994 z" stroke-linecap="round" />
</g>
		<g transform="matrix(-0.4402933116 0.4559370711 -0.0446935759 -0.0431600846 -57.2790187789 51.334277678)" id="COnsWEKfN6ZoiOoUUmlTl"  >
<path style="stroke: rgb(140,185,191); stroke-width: 0; stroke-dasharray: none; stroke-linecap: butt; stroke-dashoffset: 0; stroke-linejoin: miter; stroke-miterlimit: 4; fill: rgb(195,237,239); fill-rule: nonzero; opacity: 1;" vector-effect="non-scaling-stroke"  transform=" translate(0, 0)" d="M 0 -162.11923 C 62.72727 -162.11923 113.63636 -62.72727999999999 113.63636 0 C 113.63636 62.72727 62.72727 162.11923 0 162.11923 C -62.72727 162.11923 -113.63636 62.72727999999999 -113.63636 0 C -113.63636 -62.72727 -62.72727 -162.11923 0 -162.11923 z" stroke-linecap="round" />
</g>
		<g transform="matrix(-0.1972896297 0.2042993922 -0.0272106351 -0.0262770049 -79.6726095235 68.2985382057)" id="9ErKD7C7-JeFSB8YaZtMx"  >
<path style="stroke: rgb(140,185,191); stroke-width: 0; stroke-dasharray: none; stroke-linecap: butt; stroke-dashoffset: 0; stroke-linejoin: miter; stroke-miterlimit: 4; fill: rgb(255,255,255); fill-rule: nonzero; opacity: 1;" vector-effect="non-scaling-stroke"  transform=" translate(0, 0)" d="M 0 -162.11923 C 62.72727 -162.11923 113.63636 -62.72727999999999 113.63636 0 C 113.63636 62.72727 62.72727 162.11923 0 162.11923 C -62.72727 162.11923 -113.63636 62.72727999999999 -113.63636 0 C -113.63636 -62.72727 -62.72727 -162.11923 0 -162.11923 z" stroke-linecap="round" />
</g>
		<g transform="matrix(-0.0544371869 0.0563713572 -0.0198906201 -0.0192081485 -43.4312704274 29.4400318021)" id="vWpksfcp1pVrNUc1X8KoG"  >
<path style="stroke: rgb(140,185,191); stroke-width: 0; stroke-dasharray: none; stroke-linecap: butt; stroke-dashoffset: 0; stroke-linejoin: miter; stroke-miterlimit: 4; fill: rgb(255,255,255); fill-rule: nonzero; opacity: 1;" vector-effect="non-scaling-stroke"  transform=" translate(0, 0)" d="M 0 -162.11923 C 62.72727 -162.11923 113.63636 -62.72727999999999 113.63636 0 C 113.63636 62.72727 62.72727 162.11923 0 162.11923 C -62.72727 162.11923 -113.63636 62.72727999999999 -113.63636 0 C -113.63636 -62.72727 -62.72727 -162.11923 0 -162.11923 z" stroke-linecap="round" />
</g>
		<g transform="matrix(0.0714291564 0.0538257301 -0.1286562012 0.1707325456 39.7651704212 -66.1752817418)" id="hySewBZ8xX5Cp_WvrfmI2"  >
<path style="stroke: rgb(116,244,255); stroke-width: 0; stroke-dasharray: none; stroke-linecap: butt; stroke-dashoffset: 0; stroke-linejoin: miter; stroke-miterlimit: 4; fill: rgb(132,203,223); fill-rule: nonzero; opacity: 1;" vector-effect="non-scaling-stroke"  transform=" translate(0, 0)" d="M 0 -35.97122 C 19.85612 -35.97122 35.97122 -19.85611 35.97122 0 C 35.97122 19.85612 19.85611 35.97122 0 35.97122 C -19.85612 35.97122 -35.97122 19.85611 -35.97122 0 C -35.97122 -19.85612 -19.85611 -35.97122 0 -35.97122 z" stroke-linecap="round" />
</g>
</g>
</g>
		<g transform="matrix(1.366348703 0.0238497053 -0.0238497053 1.3663486999 -127.6297337458 -324.4733851469)" id="2k1lObtgyMLN1S_pa-gdQ"  >
<g style="" vector-effect="non-scaling-stroke"   >
		<g transform="matrix(-0.2645839402 0.9227138546 -0.6647850911 -0.1906240574 -16.4330077945 -4.6488489)" id="KfTQwpjaIJlzj59OWfA--"  >
<linearGradient id="SVGID_3565" gradientUnits="userSpaceOnUse" gradientTransform="matrix(1 0 0 1 -74.50224 -40.88777)"  x1="0" y1="40.88776502904193" x2="149.00448000000006" y2="40.88776502904193">
<stop offset="0%" style="stop-color:#FFFFFF;stop-opacity: 1"/>
<stop offset="46.382304484647214%" style="stop-color:#596E6E;stop-opacity: 1"/>
<stop offset="100%" style="stop-color:#151A1B;stop-opacity: 1"/>
</linearGradient>
<path style="stroke: rgb(140,185,191); stroke-width: 0; stroke-dasharray: none; stroke-linecap: butt; stroke-dashoffset: 0; stroke-linejoin: miter; stroke-miterlimit: 4; fill: url(#SVGID_3565); fill-rule: nonzero; opacity: 1;" vector-effect="non-scaling-stroke"  transform=" translate(0, 0.000005)" d="M -74.50224 -40.88777 L 74.50224 -40.88777 L 74.50224 -3.4271600000000007 C 74.50224 -3.4254800000000007 74.50224 -3.4237900000000008 74.50224 -3.4221100000000004 C 74.50224 14.385459999999998 41.12524 40.88775999999999 0 40.88775999999999 C -41.12524 40.88775999999999 -74.50224 14.385459999999991 -74.50224 -3.4221100000000035 L -74.50224 -3.4221100000000035 z" stroke-linecap="round" />
</g>
		<g transform="matrix(-0.1730362418 0.6034490888 -0.1982683476 -0.0568525338 11.5203602994 3.3966407495)" id="JBShtFtKXrwaVwKFDuZW1"  >
<path style="stroke: rgb(140,185,191); stroke-width: 0; stroke-dasharray: none; stroke-linecap: butt; stroke-dashoffset: 0; stroke-linejoin: miter; stroke-miterlimit: 4; fill: rgb(31,146,152); fill-rule: nonzero; opacity: 1;" vector-effect="non-scaling-stroke"  transform=" translate(0, 0)" d="M 0 -162.11923 C 62.72727 -162.11923 113.63636 -62.72727999999999 113.63636 0 C 113.63636 62.72727 62.72727 162.11923 0 162.11923 C -62.72727 162.11923 -113.63636 62.72727999999999 -113.63636 0 C -113.63636 -62.72727 -62.72727 -162.11923 0 -162.11923 z" stroke-linecap="round" />
</g>
		<g transform="matrix(-0.1163072527 0.4056115928 -0.1370561082 -0.0393002066 14.2874109949 3.372156791)" id="cmteOESMmS9CmHmoJSv9N"  >
<path style="stroke: rgb(116,244,255); stroke-width: 4; stroke-dasharray: none; stroke-linecap: butt; stroke-dashoffset: 0; stroke-linejoin: miter; stroke-miterlimit: 4; fill: rgb(31,146,152); fill-opacity: 0; fill-rule: nonzero; opacity: 1;" vector-effect="non-scaling-stroke"  transform=" translate(0, 0)" d="M 0 -162.11923 C 62.72727 -162.11923 113.63636 -62.72727999999999 113.63636 0 C 113.63636 62.72727 62.72727 162.11923 0 162.11923 C -62.72727 162.11923 -113.63636 62.72727999999999 -113.63636 0 C -113.63636 -62.72727 -62.72727 -162.11923 0 -162.11923 z" stroke-linecap="round" />
</g>
</g>
</g>
		<g transform="matrix(1.8300706514 -0.0639074752 0.0326282339 0.9343503683 70.5196878125 -250.3239082808)" id="Vthzrw0kApaSxXHLY0RtZ"  >
<path style="stroke: rgb(128,176,77); stroke-width: 0; stroke-dasharray: none; stroke-linecap: butt; stroke-dashoffset: 0; stroke-linejoin: miter; stroke-miterlimit: 4; fill: rgb(11,153,158); fill-rule: nonzero; opacity: 1;" vector-effect="non-scaling-stroke"  transform=" translate(0, 0)" d="M 0 -148.02632 C 81.71053 -148.02632 148.02632 -81.71052999999999 148.02632 0 C 148.02632 81.71053 81.71052999999999 148.02632 0 148.02632 C -81.71053 148.02632 -148.02632 81.71052999999999 -148.02632 0 C -148.02632 -81.71053 -81.71052999999999 -148.02632 0 -148.02632 z" stroke-linecap="round" />
</g>
		<g transform="matrix(1.3657243667 -0.0476921457 0.0470759353 1.3480784047 80.5241647642 36.1668270235)" id="C_5m3tkkzal_fvW4Edo6X"  >
<linearGradient id="SVGID_3566" gradientUnits="userSpaceOnUse" gradientTransform="matrix(1 0 0 1 -198.35526 -212.51786)"  x1="14.80263157894737" y1="100.89216429652251" x2="319.73684210526324" y2="278.5237432438911">
<stop offset="0%" style="stop-color:#FFFFFF;stop-opacity: 1"/>
<stop offset="50%" style="stop-color:#4E8D91;stop-opacity: 1"/>
<stop offset="100%" style="stop-color:#022934;stop-opacity: 1"/>
</linearGradient>
<path style="stroke: rgb(128,176,77); stroke-width: 0; stroke-dasharray: none; stroke-linecap: butt; stroke-dashoffset: 0; stroke-linejoin: miter; stroke-miterlimit: 4; fill: url(#SVGID_3566); fill-rule: nonzero; opacity: 1;" vector-effect="non-scaling-stroke"  transform=" translate(-0.000005, 0)" d="M -198.35526 -212.51786 L 198.35527000000002 -212.51786 L 139.14474 112.78759 L 139.14474 112.78759 C 136.9521 168.09735 70.32746000000002 212.51785999999998 -10 212.51785999999998 C -91.71053 212.51785999999998 -158.02632 166.55451999999997 -158.02632 109.92112999999999 C -158.02632 108.34320999999998 -157.97484 106.77358 -157.87298 105.21298999999999 z" stroke-linecap="round" />
</g>
		<g transform="matrix(1.8300706514 -0.0639074752 0.0356199061 1.0200206496 70.589811075 -248.3158407811)" id="3OiNB_SqhA2HkoH4_zgKl"  >
<linearGradient id="SVGID_3567" gradientUnits="userSpaceOnUse" gradientTransform="matrix(1 0 0 1 -148.02632 -148.02632)"  x1="15.8222493857063" y1="86.84646548869341" x2="269.6822159361029" y2="209.20616609025421">
<stop offset="0%" style="stop-color:#70B9BC;stop-opacity: 1"/>
<stop offset="50%" style="stop-color:#34797C;stop-opacity: 1"/>
<stop offset="100%" style="stop-color:#01383B;stop-opacity: 1"/>
</linearGradient>
<path style="stroke: rgb(128,176,77); stroke-width: 0; stroke-dasharray: none; stroke-linecap: butt; stroke-dashoffset: 0; stroke-linejoin: miter; stroke-miterlimit: 4; fill: url(#SVGID_3567); fill-rule: nonzero; opacity: 1;" vector-effect="non-scaling-stroke"  transform=" translate(0, 0)" d="M 0 -148.02632 C 81.71053 -148.02632 148.02632 -81.71052999999999 148.02632 0 C 148.02632 81.71053 81.71052999999999 148.02632 0 148.02632 C -81.71053 148.02632 -148.02632 81.71052999999999 -148.02632 0 C -148.02632 -81.71053 -81.71052999999999 -148.02632 0 -148.02632 z" stroke-linecap="round" />
</g>
		<g transform="matrix(1.3657243667 -0.0476921457 0.0229035803 0.6558727238 67.2483631789 -265.6885469753)" id="656pNKNZXjT2VY6ZTryqd"  >
<path style="stroke: rgb(0,225,255); stroke-width: 3; stroke-dasharray: none; stroke-linecap: butt; stroke-dashoffset: 0; stroke-linejoin: miter; stroke-miterlimit: 4; fill: rgb(112,185,188); fill-opacity: 0; fill-rule: nonzero; opacity: 1;" vector-effect="non-scaling-stroke"  transform=" translate(0, 0)" d="M 0 -148.02632 C 81.71053 -148.02632 148.02632 -81.71052999999999 148.02632 0 C 148.02632 81.71053 81.71052999999999 148.02632 0 148.02632 C -81.71053 148.02632 -148.02632 81.71052999999999 -148.02632 0 C -148.02632 -81.71053 -81.71052999999999 -148.02632 0 -148.02632 z" stroke-linecap="round" />
</g>
		<g transform="matrix(1.3665568362 0 0 1.3665568331 59.1790333169 -450.5164574479)" id="Ome7p2GVqskYyzs5Nmxv9"  >
<g style="" vector-effect="non-scaling-stroke"   >
		<g transform="matrix(0.2233600334 0 0 0.1159821894 21.7830604365 -153.6103807593)" id="qWYNtxNUFZfAU5Vtd_NVO"  >
<path style="stroke: rgb(140,185,191); stroke-width: 0; stroke-dasharray: none; stroke-linecap: butt; stroke-dashoffset: 0; stroke-linejoin: miter; stroke-miterlimit: 4; fill: rgb(255,255,255); fill-rule: nonzero; opacity: 1;" vector-effect="non-scaling-stroke"  transform=" translate(0, 0)" d="M 0 -87.7193 C 48.42105 -87.7193 87.7193 -48.42105 87.7193 0 C 87.7193 48.42105 48.42105 87.7193 0 87.7193 C -48.42105 87.7193 -87.7193 48.42105 -87.7193 0 C -87.7193 -48.42105 -48.42105 -87.7193 0 -87.7193 z" stroke-linecap="round" />
</g>
		<g transform="matrix(1 0 0 1 2.1900750532 0)" id="BfpM5waChNHOQ-DrSDhGE"  >
<g style="" vector-effect="non-scaling-stroke"   >
		<g transform="matrix(1.5398370719 0 0 1.1789402255 0 0)" id="mqOOvHTDDLyFRqThjmGzP"  >
<linearGradient id="SVGID_3568" gradientUnits="userSpaceOnUse" gradientTransform="matrix(1 0 0 1 -148.02632 -148.02632)"  x1="0" y1="148.02631578947364" x2="296.0526315789471" y2="148.02631578947364">
<stop offset="0%" style="stop-color:#FFFFFF;stop-opacity: 1"/>
<stop offset="50%" style="stop-color:#4A5F98;stop-opacity: 1"/>
<stop offset="100%" style="stop-color:#010824;stop-opacity: 1"/>
</linearGradient>
<path style="stroke: rgb(56,62,162); stroke-width: 0; stroke-dasharray: none; stroke-linecap: butt; stroke-dashoffset: 0; stroke-linejoin: miter; stroke-miterlimit: 4; fill: url(#SVGID_3568); fill-rule: nonzero; opacity: 1;" vector-effect="non-scaling-stroke"  transform=" translate(0, 0)" d="M 0 -148.02632 C 81.71053 -148.02632 148.02632 -81.71052999999999 148.02632 0 C 148.02632 81.71053 81.71052999999999 148.02632 0 148.02632 C -81.71053 148.02632 -148.02632 81.71052999999999 -148.02632 0 C -148.02632 -81.71053 -81.71052999999999 -148.02632 0 -148.02632 z" stroke-linecap="round" />
</g>
		<g transform="matrix(1.4893070268 0 0 1.059008598 0.8949386385 -17.7530369582)" id="LJFMWMsAOWCfLt0BuBtrt"  >
<linearGradient id="SVGID_3569" gradientUnits="userSpaceOnUse" gradientTransform="matrix(1 0 0 1 -148.02632 -148.02632)"  x1="23.85425916274812" y1="108.88841974419836" x2="236.4169836720772" y2="262.64443992206543">
<stop offset="0%" style="stop-color:#FFFFFF;stop-opacity: 1"/>
<stop offset="50%" style="stop-color:#A6D3D6;stop-opacity: 1"/>
<stop offset="100%" style="stop-color:#094A4C;stop-opacity: 1"/>
</linearGradient>
<path style="stroke: rgb(24,131,137); stroke-width: 0; stroke-dasharray: none; stroke-linecap: butt; stroke-dashoffset: 0; stroke-linejoin: miter; stroke-miterlimit: 4; fill: url(#SVGID_3569); fill-rule: nonzero; opacity: 1;" vector-effect="non-scaling-stroke"  transform=" translate(0, 0)" d="M 0 -148.02632 C 81.71053 -148.02632 148.02632 -81.71052999999999 148.02632 0 C 148.02632 81.71053 81.71052999999999 148.02632 0 148.02632 C -81.71053 148.02632 -148.02632 81.71052999999999 -148.02632 0 C -148.02632 -81.71053 -81.71052999999999 -148.02632 0 -148.02632 z" stroke-linecap="round" />
</g>
		<g transform="matrix(0.9498994924 0 0 0.4093789493 3.7759080638 -105.1622835235)" id="NXQV9w8AjEdV0sOVmK8Xc"  >
<linearGradient id="SVGID_3570" gradientUnits="userSpaceOnUse" gradientTransform="matrix(1 0 0 1 -148.02632 -148.02632)"  x1="28.050059037171764" y1="68.4770631330972" x2="233.71916705189915" y2="256.5025694118052">
<stop offset="0%" style="stop-color:#FFFFFF;stop-opacity: 1"/>
<stop offset="50%" style="stop-color:#CCE1E1;stop-opacity: 1"/>
<stop offset="100%" style="stop-color:#8BC5C8;stop-opacity: 1"/>
</linearGradient>
<path style="stroke: rgb(18,177,85); stroke-width: 0; stroke-dasharray: none; stroke-linecap: butt; stroke-dashoffset: 0; stroke-linejoin: miter; stroke-miterlimit: 4; fill: url(#SVGID_3570); fill-rule: nonzero; opacity: 1;" vector-effect="non-scaling-stroke"  transform=" translate(0, 0)" d="M 0 -148.02632 C 81.71053 -148.02632 148.02632 -81.71052999999999 148.02632 0 C 148.02632 81.71053 81.71052999999999 148.02632 0 148.02632 C -81.71053 148.02632 -148.02632 81.71052999999999 -148.02632 0 C -148.02632 -81.71053 -81.71052999999999 -148.02632 0 -148.02632 z" stroke-linecap="round" />
</g>
		<g transform="matrix(0.3311093448 0 0 0.1575976613 31.0694653062 -134.4908847046)" id="VvYejpt6pa4uLqzvF2LbP"  >
<path style="stroke: rgb(43,147,27); stroke-width: 0; stroke-dasharray: none; stroke-linecap: butt; stroke-dashoffset: 0; stroke-linejoin: miter; stroke-miterlimit: 4; fill: rgb(255,255,255); fill-rule: nonzero; opacity: 1;" vector-effect="non-scaling-stroke"  transform=" translate(0, 0)" d="M 0 -148.02632 C 81.71053 -148.02632 148.02632 -81.71052999999999 148.02632 0 C 148.02632 81.71053 81.71052999999999 148.02632 0 148.02632 C -81.71053 148.02632 -148.02632 81.71052999999999 -148.02632 0 C -148.02632 -81.71053 -81.71052999999999 -148.02632 0 -148.02632 z" stroke-linecap="round" />
</g>
</g>
</g>
		<g transform="matrix(0.3720954541 -0.0790913303 0.0551847794 0.259623975 14.0693294433 95.8349316529)" id="ECfohHXogjzhaWbK6JOnR"  >
<path style="stroke: rgb(0,225,255); stroke-width: 0; stroke-dasharray: none; stroke-linecap: butt; stroke-dashoffset: 0; stroke-linejoin: miter; stroke-miterlimit: 4; fill: rgb(3,18,78); fill-rule: nonzero; opacity: 1;" vector-effect="non-scaling-stroke"  transform=" translate(0, 0)" d="M 0 -185.18519 C 102.22222 -185.18519 185.18519 -102.22223000000001 185.18519 0 C 185.18519 102.22222 102.22223000000001 185.18519 0 185.18519 C -102.22222 185.18519 -185.18519 102.22223000000001 -185.18519 0 C -185.18519 -102.22222 -102.22223000000001 -185.18519 0 -185.18519 z" stroke-linecap="round" />
</g>
		<g transform="matrix(-0.0790228361 -0.2171134578 -0.1193565039 0.0434422147 -193.3895689034 33.1098751082)" id="Qeqw8LBWdviLTdE2qtt2P"  >
<linearGradient id="SVGID_3571" gradientUnits="userSpaceOnUse" gradientTransform="matrix(1 0 0 1 -185.18519 -185.18519)"  x1="346.0918880610234" y1="185.9898207306262" x2="37.1504566177382" y2="201.42795921917536">
<stop offset="0%" style="stop-color:#1806AC;stop-opacity: 1"/>
<stop offset="50%" style="stop-color:#1F0470;stop-opacity: 1"/>
<stop offset="100%" style="stop-color:#030239;stop-opacity: 1"/>
</linearGradient>
<path style="stroke: rgb(0,225,255); stroke-width: 0; stroke-dasharray: none; stroke-linecap: butt; stroke-dashoffset: 0; stroke-linejoin: miter; stroke-miterlimit: 4; fill: url(#SVGID_3571); fill-rule: nonzero; opacity: 1;" vector-effect="non-scaling-stroke"  transform=" translate(0, 0)" d="M 0 -185.18519 C 102.22222 -185.18519 185.18519 -102.22223000000001 185.18519 0 C 185.18519 102.22222 102.22223000000001 185.18519 0 185.18519 C -102.22222 185.18519 -185.18519 102.22223000000001 -185.18519 0 C -185.18519 -102.22222 -102.22223000000001 -185.18519 0 -185.18519 z" stroke-linecap="round" />
</g>
		<g transform="matrix(0.1152389654 0 0 0.1438913978 -201.7950916134 19.9864247246)" id="joqHNaIY194e5hbaYjfvg"  >
<path style="stroke: rgb(0,225,255); stroke-width: 0; stroke-dasharray: none; stroke-linecap: butt; stroke-dashoffset: 0; stroke-linejoin: miter; stroke-miterlimit: 4; fill: rgb(90,88,218); fill-rule: nonzero; opacity: 1;" vector-effect="non-scaling-stroke"  transform=" translate(0, 0)" d="M 0 -125 C 69 -125 125 -69 125 0 C 125 69 69 125 0 125 C -69 125 -125 69 -125 0 C -125 -69 -69 -125 0 -125 z" stroke-linecap="round" />
</g>
		<g transform="matrix(0.2071479415 0.0753956848 -0.0523421471 0.1438088672 -18.3669316379 95.8349316529)" id="bhMmhmhODGlvqUM0q6wIZ"  >
<path style="stroke: rgb(0,225,255); stroke-width: 0; stroke-dasharray: none; stroke-linecap: butt; stroke-dashoffset: 0; stroke-linejoin: miter; stroke-miterlimit: 4; fill: rgb(38,36,152); fill-rule: nonzero; opacity: 1;" vector-effect="non-scaling-stroke"  transform=" translate(0, 0)" d="M 0 -125 C 69 -125 125 -69 125 0 C 125 69 69 125 0 125 C -69 125 -125 69 -125 0 C -125 -69 -69 -125 0 -125 z" stroke-linecap="round" />
</g>
		<g transform="matrix(0.3349938439 -0.0897613299 0.0241464349 0.0901157218 2.1900750532 101.0968212344)" id="2ZjipfIRr71PUX9ISVwNU"  >
<path style="stroke: rgb(140,185,191); stroke-width: 0; stroke-dasharray: none; stroke-linecap: butt; stroke-dashoffset: 0; stroke-linejoin: miter; stroke-miterlimit: 4; fill: rgb(0,225,255); fill-rule: nonzero; opacity: 1;" vector-effect="non-scaling-stroke"  transform=" translate(0, 0)" d="M -93.34712 -152.68943 L 91.83807 -152.68943 L 93.34712 152.68943 L -93.34711 32.49575999999999 z" stroke-linecap="round" />
</g>
		<g transform="matrix(-0.0577586832 -0.1586906779 -0.0426889188 0.0155374958 -190.3455651514 41.2971005503)" id="u-TURRc0i8cYf8gWFwxG7"  >
<path style="stroke: rgb(140,185,191); stroke-width: 0; stroke-dasharray: none; stroke-linecap: butt; stroke-dashoffset: 0; stroke-linejoin: miter; stroke-miterlimit: 4; fill: rgb(0,225,255); fill-rule: nonzero; opacity: 1;" vector-effect="non-scaling-stroke"  transform=" translate(0, 0)" d="M -93.34712 -152.68943 L 91.83807 -152.68943 L 93.34712 152.68943 L -93.34711 32.49575999999999 z" stroke-linecap="round" />
</g>
		<g transform="matrix(0.0385667234 0 0 0.048155758 -212.6107211208 6.978921765)" id="C4Sg9nLE0TvLhr1LAOlGp"  >
<path style="stroke: rgb(0,225,255); stroke-width: 0; stroke-dasharray: none; stroke-linecap: butt; stroke-dashoffset: 0; stroke-linejoin: miter; stroke-miterlimit: 4; fill: rgb(218,219,239); fill-rule: nonzero; opacity: 1;" vector-effect="non-scaling-stroke"  transform=" translate(0, 0)" d="M 0 -125 C 69 -125 125 -69 125 0 C 125 69 69 125 0 125 C -69 125 -125 69 -125 0 C -125 -69 -69 -125 0 -125 z" stroke-linecap="round" />
</g>
		<g transform="matrix(0.0214410968 0 0 0.0267721024 -213.6107211208 2.3465128034)" id="GLI3tkijyUy0QL4O5UMCL"  >
<path style="stroke: rgb(0,225,255); stroke-width: 0; stroke-dasharray: none; stroke-linecap: butt; stroke-dashoffset: 0; stroke-linejoin: miter; stroke-miterlimit: 4; fill: rgb(255,255,255); fill-rule: nonzero; opacity: 1;" vector-effect="non-scaling-stroke"  transform=" translate(0, 0)" d="M 0 -125 C 69 -125 125 -69 125 0 C 125 69 69 125 0 125 C -69 125 -125 69 -125 0 C -125 -69 -69 -125 0 -125 z" stroke-linecap="round" />
</g>
		<g transform="matrix(0.048 0 0 0.05993448 -31.6107211207 77.978921765)" id="oQU1Nh6gKhEKbJe1Z_Xfd"  >
<path style="stroke: rgb(0,225,255); stroke-width: 0; stroke-dasharray: none; stroke-linecap: butt; stroke-dashoffset: 0; stroke-linejoin: miter; stroke-miterlimit: 4; fill: rgb(81,77,179); fill-rule: nonzero; opacity: 1;" vector-effect="non-scaling-stroke"  transform=" translate(0, 0)" d="M 0 -125 C 69 -125 125 -69 125 0 C 125 69 69 125 0 125 C -69 125 -125 69 -125 0 C -125 -69 -69 -125 0 -125 z" stroke-linecap="round" />
</g>
</g>
</g>
		<g transform="matrix(-0.383520377 1.2544386266 -0.9037819193 -0.2763138615 300.6890795814 -154.9379214475)" id="pQmXtwSlaBF-LMvPvFTXW"  >
<linearGradient id="SVGID_3572" gradientUnits="userSpaceOnUse" gradientTransform="matrix(1 0 0 1 -74.50224 -40.88777)"  x1="0" y1="40.88776502904193" x2="149.00448000000006" y2="40.88776502904193">
<stop offset="0%" style="stop-color:#FFFFFF;stop-opacity: 1"/>
<stop offset="46.382304484647214%" style="stop-color:#596E6E;stop-opacity: 1"/>
<stop offset="100%" style="stop-color:#151A1B;stop-opacity: 1"/>
</linearGradient>
<path style="stroke: rgb(140,185,191); stroke-width: 0; stroke-dasharray: none; stroke-linecap: butt; stroke-dashoffset: 0; stroke-linejoin: miter; stroke-miterlimit: 4; fill: url(#SVGID_3572); fill-rule: nonzero; opacity: 1;" vector-effect="non-scaling-stroke"  transform=" translate(0, 0.000005)" d="M -74.50224 -40.88777 L 74.50224 -40.88777 L 74.50224 -3.4271600000000007 C 74.50224 -3.4254800000000007 74.50224 -3.4237900000000008 74.50224 -3.4221100000000004 C 74.50224 14.385459999999998 41.12524 40.88775999999999 0 40.88775999999999 C -41.12524 40.88775999999999 -74.50224 14.385459999999991 -74.50224 -3.4221100000000035 L -74.50224 -3.4221100000000035 z" stroke-linecap="round" />
</g>
		<g transform="matrix(-0.2508199275 0.8203950146 -0.2695477835 -0.0824090273 338.691245263 -143.2782975347)" id="qRH4k6ClF0EBNDXjGdYH2"  >
<path style="stroke: rgb(140,185,191); stroke-width: 0; stroke-dasharray: none; stroke-linecap: butt; stroke-dashoffset: 0; stroke-linejoin: miter; stroke-miterlimit: 4; fill: rgb(31,146,152); fill-rule: nonzero; opacity: 1;" vector-effect="non-scaling-stroke"  transform=" translate(0, 0)" d="M 0 -162.11923 C 62.72727 -162.11923 113.63636 -62.72727999999999 113.63636 0 C 113.63636 62.72727 62.72727 162.11923 0 162.11923 C -62.72727 162.11923 -113.63636 62.72727999999999 -113.63636 0 C -113.63636 -62.72727 -62.72727 -162.11923 0 -162.11923 z" stroke-linecap="round" />
</g>
		<g transform="matrix(-0.1685899808 0.5514329788 -0.1863291373 -0.056966534 342.472585327 -143.245757816)" id="V9zy5Mlbqn8AbrMYrIrfG"  >
<path style="stroke: rgb(116,244,255); stroke-width: 4; stroke-dasharray: none; stroke-linecap: butt; stroke-dashoffset: 0; stroke-linejoin: miter; stroke-miterlimit: 4; fill: rgb(31,146,152); fill-opacity: 0; fill-rule: nonzero; opacity: 1;" vector-effect="non-scaling-stroke"  transform=" translate(0, 0)" d="M 0 -162.11923 C 62.72727 -162.11923 113.63636 -62.72727999999999 113.63636 0 C 113.63636 62.72727 62.72727 162.11923 0 162.11923 C -62.72727 162.11923 -113.63636 62.72727999999999 -113.63636 0 C -113.63636 -62.72727 -62.72727 -162.11923 0 -162.11923 z" stroke-linecap="round" />
</g>
		<g transform="matrix(1.366348703 0.0238497053 -0.0238497053 1.3663486999 399.6017034662 32.188377864)" id="ec523UDZPAGwWJMb142Md"  >
<g style="" vector-effect="non-scaling-stroke"   >
		<g transform="matrix(0.9259282076 0.0973189762 -0.2483375121 2.362773598 -15.1694654965 -2.2467604991)" id="leQ5sUSBZwtuBYPYq-E82"  >
<linearGradient id="SVGID_3573" gradientUnits="userSpaceOnUse" gradientTransform="matrix(1 0 0 1 0.00001215 -0.0000013067)"  x1="44.15584415584412" y1="9.036507016983506" x2="12.918730010904184" y2="128.51702649750294">
<stop offset="0%" style="stop-color:#A1E1A2;stop-opacity: 1"/>
<stop offset="50%" style="stop-color:#14AA17;stop-opacity: 1"/>
<stop offset="100%" style="stop-color:#5EDF57;stop-opacity: 1"/>
</linearGradient>
<path style="stroke: rgb(140,185,191); stroke-width: 0; stroke-dasharray: none; stroke-linecap: butt; stroke-dashoffset: 0; stroke-linejoin: miter; stroke-miterlimit: 4; fill: url(#SVGID_3573); fill-rule: nonzero; opacity: 1;" vector-effect="non-scaling-stroke"  transform=" translate(-34.7061304022, -72.6728693467)" d="M 66.25378 3.48261 L 63.29180000000001 20.28085 C 68.6906 34.65187 71.46138 55.17186 67.63658000000001 76.86336 C 63.811780000000006 98.55486 54.18985000000001 116.88968 44.20146000000001 128.54752 L 41.239480000000015 145.34573999999998 L 22.656770000000016 142.06910999999997 L 22.659140000000015 142.05567999999997 C 22.503940000000014 142.03753999999998 22.350540000000017 142.01512999999997 22.198980000000017 141.98840999999996 C 9.457510000000017 139.74173999999996 -5.128269999999983 104.40453999999997 1.7756800000000155 65.25030999999996 C 8.679630000000015 26.096079999999958 34.47181000000001 -2.121400000000037 47.213290000000015 0.12525999999995463 C 47.36485000000002 0.15197999999995462 47.51667000000001 0.18338999999995464 47.66871000000001 0.21942999999995463 L 47.67108000000001 0.20597999999995464 z" stroke-linecap="round" />
</g>
		<g transform="matrix(-0.2569221087 1.4641270075 -0.1791845373 -0.1043939631 3.0806048517 4.6463078073)" id="08BFSuJ5B85MgP0QKq4xO"  >
<linearGradient id="SVGID_3574" gradientUnits="userSpaceOnUse" gradientTransform="matrix(1 0 0 1 -113.63636 -162.11923)"  x1="213.70289724892925" y1="304.35894696708306" x2="27.732474161113913" y2="152.77201867747564">
<stop offset="0%" style="stop-color:#DEF1F1;stop-opacity: 1"/>
<stop offset="51.354034460072604%" style="stop-color:#99C5CD;stop-opacity: 1"/>
<stop offset="100%" style="stop-color:#3D6562;stop-opacity: 1"/>
</linearGradient>
<path style="stroke: rgb(140,185,191); stroke-width: 0; stroke-dasharray: none; stroke-linecap: butt; stroke-dashoffset: 0; stroke-linejoin: miter; stroke-miterlimit: 4; fill: url(#SVGID_3574); fill-rule: nonzero; opacity: 1;" vector-effect="non-scaling-stroke"  transform=" translate(0, 0)" d="M 0 -162.11923 C 62.72727 -162.11923 113.63636 -62.72727999999999 113.63636 0 C 113.63636 62.72727 62.72727 162.11923 0 162.11923 C -62.72727 162.11923 -113.63636 62.72727999999999 -113.63636 0 C -113.63636 -62.72727 -62.72727 -162.11923 0 -162.11923 z" stroke-linecap="round" />
</g>
		<g transform="matrix(0.9945218954 0.1045284633 -0.1045284633 0.9945218954 -17.5702066885 -112.0461021632)" id="fJY5L58D6D_pS0NgHitc4"  >
<linearGradient id="SVGID_3575" gradientUnits="userSpaceOnUse" gradientTransform="matrix(1 0 0 1 0.00001215 -0.0000013067)"  x1="44.15584415584412" y1="9.036507016983506" x2="12.918730010904184" y2="128.51702649750294">
<stop offset="0%" style="stop-color:#A1E1A2;stop-opacity: 1"/>
<stop offset="50%" style="stop-color:#3BC63E;stop-opacity: 1"/>
<stop offset="100%" style="stop-color:#5EDF57;stop-opacity: 1"/>
</linearGradient>
<path style="stroke: rgb(140,185,191); stroke-width: 0; stroke-dasharray: none; stroke-linecap: butt; stroke-dashoffset: 0; stroke-linejoin: miter; stroke-miterlimit: 4; fill: url(#SVGID_3575); fill-rule: nonzero; opacity: 1;" vector-effect="non-scaling-stroke"  transform=" translate(-34.7061304022, -72.6728693467)" d="M 66.25378 3.48261 L 63.29180000000001 20.28085 C 68.6906 34.65187 71.46138 55.17186 67.63658000000001 76.86336 C 63.811780000000006 98.55486 54.18985000000001 116.88968 44.20146000000001 128.54752 L 41.239480000000015 145.34573999999998 L 22.656770000000016 142.06910999999997 L 22.659140000000015 142.05567999999997 C 22.503940000000014 142.03753999999998 22.350540000000017 142.01512999999997 22.198980000000017 141.98840999999996 C 9.457510000000017 139.74173999999996 -5.128269999999983 104.40453999999997 1.7756800000000155 65.25030999999996 C 8.679630000000015 26.096079999999958 34.47181000000001 -2.121400000000037 47.213290000000015 0.12525999999995463 C 47.36485000000002 0.15197999999995462 47.51667000000001 0.18338999999995464 47.66871000000001 0.21942999999995463 L 47.67108000000001 0.20597999999995464 z" stroke-linecap="round" />
</g>
		<g transform="matrix(-0.1747064303 0.6092737285 -0.1982683476 -0.0568525338 2.3696466135 -107.8563358993)" id="sFaO5_qjhonDPAQC3gZZb"  >
<linearGradient id="SVGID_3576" gradientUnits="userSpaceOnUse" gradientTransform="matrix(1 0 0 1 -113.63636 -162.11923)"  x1="80.13639487372694" y1="279.407530976021" x2="195.5417565619269" y2="56.570438646141156">
<stop offset="0%" style="stop-color:#D7F7F8;stop-opacity: 1"/>
<stop offset="38.95169182658019%" style="stop-color:#6D9E9C;stop-opacity: 1"/>
<stop offset="100%" style="stop-color:#396360;stop-opacity: 1"/>
</linearGradient>
<path style="stroke: rgb(140,185,191); stroke-width: 0; stroke-dasharray: none; stroke-linecap: butt; stroke-dashoffset: 0; stroke-linejoin: miter; stroke-miterlimit: 4; fill: url(#SVGID_3576); fill-rule: nonzero; opacity: 1;" vector-effect="non-scaling-stroke"  transform=" translate(0, 0)" d="M 0 -162.11923 C 62.72727 -162.11923 113.63636 -62.72727999999999 113.63636 0 C 113.63636 62.72727 62.72727 162.11923 0 162.11923 C -62.72727 162.11923 -113.63636 62.72727999999999 -113.63636 0 C -113.63636 -62.72727 -62.72727 -162.11923 0 -162.11923 z" stroke-linecap="round" />
</g>
		<g transform="matrix(-0.0736186729 0.2567388232 -0.083547312 -0.0239568062 7.593370622 -107.8563358993)" id="xsvddABOQcGPRQ0hDDLdu"  >
<linearGradient id="SVGID_3577" gradientUnits="userSpaceOnUse" gradientTransform="matrix(1 0 0 1 -113.63636 -201.05756)"  x1="112.06227638133396" y1="50.646706647312385" x2="133.68786178613755" y2="639.5761959383835">
<stop offset="0%" style="stop-color:#00F2FF;stop-opacity: 1"/>
<stop offset="50%" style="stop-color:#17ADC8;stop-opacity: 1"/>
<stop offset="100%" style="stop-color:#000000;stop-opacity: 1"/>
</linearGradient>
<path style="stroke: rgb(140,185,191); stroke-width: 0; stroke-dasharray: none; stroke-linecap: butt; stroke-dashoffset: 0; stroke-linejoin: miter; stroke-miterlimit: 4; fill: url(#SVGID_3577); fill-rule: nonzero; opacity: 1;" vector-effect="non-scaling-stroke"  transform=" translate(0, -0.000005)" d="M 8.08296 -201.05756 C 70.81022999999999 -201.05756 113.63636 -23.788929999999993 113.63636 38.93834000000001 C 113.63636 101.66561000000002 62.72727 201.05757 0 201.05757 C -62.72727 201.05757 -113.63636 101.66562 -113.63636 38.93834000000001 C -113.63636 -23.788929999999986 -54.64431 -201.05756 8.082970000000003 -201.05756 z" stroke-linecap="round" />
</g>
		<g transform="matrix(0.1003506445 0.0176945261 -0.037122561 0.2105325051 18.3572721016 -106.5167805456)" id="A3pHG4uhFuXt7BafbkRFh"  >
<path style="stroke: rgb(116,244,255); stroke-width: 0; stroke-dasharray: none; stroke-linecap: butt; stroke-dashoffset: 0; stroke-linejoin: miter; stroke-miterlimit: 4; fill: rgb(255,255,255); fill-rule: nonzero; opacity: 1;" vector-effect="non-scaling-stroke"  transform=" translate(0, 0)" d="M 0 -35.97122 C 19.85612 -35.97122 35.97122 -19.85611 35.97122 0 C 35.97122 19.85612 19.85611 35.97122 0 35.97122 C -19.85612 35.97122 -35.97122 19.85611 -35.97122 0 C -35.97122 -19.85612 -19.85611 -35.97122 0 -35.97122 z" stroke-linecap="round" />
</g>
		<g transform="matrix(0.265093454 0.0964861266 -0.0373744384 0.1026854255 -17.5702066885 -162.2497053841)" id="sciK4BvOpGUYbZdv6F4I3"  >
<path style="stroke: rgb(116,244,255); stroke-width: 0; stroke-dasharray: none; stroke-linecap: butt; stroke-dashoffset: 0; stroke-linejoin: miter; stroke-miterlimit: 4; fill: rgb(203,253,225); fill-rule: nonzero; opacity: 1;" vector-effect="non-scaling-stroke"  transform=" translate(0, 0.000005)" d="M -28.9291 -36.1735 L 38.38084 -35.95395 L 28.90842 29.591829999999995 L -38.38084 36.173489999999994 z" stroke-linecap="round" />
</g>
		<g transform="matrix(0.1224168894 0.0445561039 -0.0172590497 0.0474188493 -20.4922487499 -165.6751116138)" id="MbsFYYrsLrKKUShdetgyZ"  >
<path style="stroke: rgb(116,244,255); stroke-width: 0; stroke-dasharray: none; stroke-linecap: butt; stroke-dashoffset: 0; stroke-linejoin: miter; stroke-miterlimit: 4; fill: rgb(255,255,255); fill-rule: nonzero; opacity: 1;" vector-effect="non-scaling-stroke"  transform=" translate(0, 0.000005)" d="M -28.9291 -36.1735 L 38.38084 -35.95395 L 28.90842 29.591829999999995 L -38.38084 36.173489999999994 z" stroke-linecap="round" />
</g>
</g>
</g>
		<g transform="matrix(0.0422416598 0 0 0.0422416597 86.7594885819 -329.3986037802)" id="_L1MQkhxJLUYHWAM6pB_U"  >
<path style="stroke: rgb(0,255,23); stroke-width: 0; stroke-dasharray: none; stroke-linecap: butt; stroke-dashoffset: 0; stroke-linejoin: miter; stroke-miterlimit: 4; fill: rgb(255,255,255); fill-rule: nonzero; opacity: 1;" vector-effect="non-scaling-stroke"  transform=" translate(0, 0)" d="M -156.25 -89.95874 C -156.25 -126.57039 -126.57039 -156.25 -89.95874 -156.25 L 89.95874 -156.25 L 89.95874 -156.25 C 126.57039 -156.25 156.25 -126.57039 156.25 -89.95874 L 156.25 89.95874 L 156.25 89.95874 C 156.25 126.57039 126.57039 156.25 89.95874 156.25 L -89.95874 156.25 L -89.95874 156.25 C -126.57039 156.25 -156.25 126.57039 -156.25 89.95874 z" stroke-linecap="round" />
</g>
		<g transform="matrix(0.0244280174 0 0 0.0244280173 -203.3524805162 -409.6887534587)" id="RNUdLf6N22_NtrYSk5dLO"  >
<path style="stroke: rgb(0,255,23); stroke-width: 0; stroke-dasharray: none; stroke-linecap: butt; stroke-dashoffset: 0; stroke-linejoin: miter; stroke-miterlimit: 4; fill: rgb(255,255,255); fill-rule: nonzero; opacity: 1;" vector-effect="non-scaling-stroke"  transform=" translate(0, 0)" d="M -156.25 -89.95874 C -156.25 -126.57039 -126.57039 -156.25 -89.95874 -156.25 L 89.95874 -156.25 L 89.95874 -156.25 C 126.57039 -156.25 156.25 -126.57039 156.25 -89.95874 L 156.25 89.95874 L 156.25 89.95874 C 156.25 126.57039 126.57039 156.25 89.95874 156.25 L -89.95874 156.25 L -89.95874 156.25 C -126.57039 156.25 -156.25 126.57039 -156.25 89.95874 z" stroke-linecap="round" />
</g>
		<g transform="matrix(0.0478536197 0.5469693744 -0.2626754737 0.0229811261 -85.692600085 -5.2989290735)" id="pVMCO5Mk6HW3VSgoASHJ_"  >
<radialGradient id="SVGID_3578" gradientUnits="userSpaceOnUse" gradientTransform="matrix(1 0 0 1 -148.02632 -148.02632)"  cx="148.02632" cy="148.02632" r="148.02632" fx="148.02632" fy="148.02632">
<stop offset="0%" style="stop-color:#FFFFFF;stop-opacity: 1"/>
<stop offset="50%" style="stop-color:#92EAF1;stop-opacity: 1"/>
<stop offset="100%" style="stop-color:#1EFBF7;stop-opacity: 1"/>
</radialGradient>
<path style="stroke: rgb(0,198,255); stroke-width: 1; stroke-dasharray: none; stroke-linecap: butt; stroke-dashoffset: 0; stroke-linejoin: miter; stroke-miterlimit: 4; fill: url(#SVGID_3578); fill-rule: nonzero; opacity: 1;" vector-effect="non-scaling-stroke"  transform=" translate(0, 0)" d="M 0 -148.02632 C 81.71053 -148.02632 148.02632 -81.71052999999999 148.02632 0 C 148.02632 81.71053 81.71052999999999 148.02632 0 148.02632 C -81.71053 148.02632 -148.02632 81.71052999999999 -148.02632 0 C -148.02632 -81.71053 -81.71052999999999 -148.02632 0 -148.02632 z" stroke-linecap="round" />
</g>
		<g transform="matrix(0.7917861355 0 0 0.7919364749 -281.9006949762 55.1012878569)" id="itGF5y8ryo3rKllc2TZuY"  >
<g style="" vector-effect="non-scaling-stroke"   >
		<g transform="matrix(0.8332227365 0 0 1 0 109.8449062483)" id="Z_PR3wc7ziavCn8iicM8X"  >
<g style="opacity: 0.7;" vector-effect="non-scaling-stroke"   >
		<g transform="matrix(1 0 0 1 -148.648145 83.2733664361)" id="qkrKjhs4PagpX1VSCO5WX"  >
<path style="stroke: none; stroke-width: 1; stroke-dasharray: none; stroke-linecap: butt; stroke-dashoffset: 0; stroke-linejoin: miter; stroke-miterlimit: 4; fill: rgb(255,0,0); fill-rule: nonzero; opacity: 0.7;" vector-effect="non-scaling-stroke"  transform=" translate(-148.148145, -152.268445)" d="M 148.14815 152.26843 L 0 0.000010000000003174137 L 0.00001 3.1741356911569804e-15 L 296.29629 3.1741356911569804e-15 L 296.29629 304.53689 z" stroke-linecap="round" />
</g>
		<g transform="matrix(-1 0 0 1 148.648145 83.2733664361)" id="ant31kLmxNtY3e487wCCK"  >
<path style="stroke: none; stroke-width: 1; stroke-dasharray: none; stroke-linecap: butt; stroke-dashoffset: 0; stroke-linejoin: miter; stroke-miterlimit: 4; fill: rgb(112,5,5); fill-rule: nonzero; opacity: 0.7;" vector-effect="non-scaling-stroke"  transform=" translate(-148.148145, -152.268445)" d="M 148.14815 152.26843 L 0 0.000010000000003174137 L 0.00001 3.1741356911569804e-15 L 296.29629 3.1741356911569804e-15 L 296.29629 304.53689 z" stroke-linecap="round" />
</g>
		<g transform="matrix(1 0 0 1.0373561963 -0.49999 -69.4950785639)" id="H3tsuQvu1uONiPtIprfj4"  >
<linearGradient id="SVGID_3579" gradientUnits="userSpaceOnUse" gradientTransform="matrix(1 0 0 1 0 0)"  x1="-31.25" y1="99.81791523208165" x2="495.7176000000002" y2="259.47859936706527">
<stop offset="0%" style="stop-color:#FFFFFF;stop-opacity: 1"/>
<stop offset="42.042627819417774%" style="stop-color:#7E7E7E;stop-opacity: 1"/>
<stop offset="100%" style="stop-color:#000000;stop-opacity: 1"/>
</linearGradient>
<path style="stroke: none; stroke-width: 1; stroke-dasharray: none; stroke-linecap: butt; stroke-dashoffset: 0; stroke-linejoin: miter; stroke-miterlimit: 4; fill: url(#SVGID_3579); fill-rule: nonzero; opacity: 0.7;" vector-effect="non-scaling-stroke"  transform=" translate(-296.2963, -160.06723)" d="M 444.44445 240.10084 L 296.29630000000003 320.13446 L 296.29630000000003 320.13446 L 296.29630000000003 320.13446 L 296.29630000000003 320.13446 L 296.29630000000003 320.13446 L 148.14815000000004 240.10084 L 5.684341886080802e-14 160.06724 L 296.29630000000003 0 L 296.29630000000003 0 L 296.29630000000003 0 L 296.29630000000003 0 L 296.29630000000003 0 L 592.5926 160.06724 z" stroke-linecap="round" />
</g>
</g>
</g>
		<g transform="matrix(1 0 0 1 -0.3332144043 -101.0687738001)" id="TZVYhY6v3h3sBX5_eEwPV"  >
<g style="" vector-effect="non-scaling-stroke"   >
		<g transform="matrix(0.8332227365 0 0 0.9199142985 0 96.249052525)" id="8ZmsfLjs5Bq0Ln8BAUEOQ"  >
<linearGradient id="SVGID_3580" gradientUnits="userSpaceOnUse" gradientTransform="matrix(1 0 0 1 -296.2963 -160.06723)"  x1="29.62962962962962" y1="41.67640629499681" x2="537.0370444444444" y2="257.31683518625255">
<stop offset="0%" style="stop-color:#FFFFFF;stop-opacity: 1"/>
<stop offset="50%" style="stop-color:#7e7e7e;stop-opacity: 1"/>
<stop offset="100%" style="stop-color:#000000;stop-opacity: 1"/>
</linearGradient>
<path style="stroke: none; stroke-width: 1; stroke-dasharray: none; stroke-linecap: butt; stroke-dashoffset: 0; stroke-linejoin: miter; stroke-miterlimit: 4; fill: url(#SVGID_3580); fill-rule: nonzero; opacity: 0.7;" vector-effect="non-scaling-stroke"  transform=" translate(0, 0)" d="M 148.14815 80.03361 L 0 160.06723 L 0 160.06723 L 0 160.06723 L 0 160.06723 L 0 160.06723 L -148.14815 80.03361 L -296.2963 0.000009999999988963282 L 0 -160.06723 L 0 -160.06723 L 0 -160.06723 L 0 -160.06723 L 0 -160.06723 L 296.2963 0.000010000000003174137 z" stroke-linecap="round" />
</g>
		<g transform="matrix(0.8332227365 0 0 1.0377706365 -0.5 0)" id="dfsI_R-81ihcj-3cBQs8G"  >
<g style="opacity: 0.7;" vector-effect="non-scaling-stroke"   >
		<g transform="matrix(1 0 0 1 -148.14815 0)" id="_XkQ1ZKpkZGd5ZQnoII43"  >
<path style="stroke: none; stroke-width: 0; stroke-dasharray: none; stroke-linecap: butt; stroke-dashoffset: 0; stroke-linejoin: miter; stroke-miterlimit: 4; fill: rgb(255,0,0); fill-rule: nonzero; opacity: 0.7;" vector-effect="non-scaling-stroke"  transform=" translate(-148.14815, -235.907565)" d="M 148.14815 400.42694 L 0 329.03877 L 0.00002 329.03876 L 296.29630000000003 329.03876 L 296.29630000000003 471.81513 z M 296.2963 0 L 296.2963 329.03876 L 0.000019999999949504854 329.03876 L -5.0495147478494054e-14 329.03874 L 148.14814999999993 164.51939000000002 z" stroke-linecap="round" />
</g>
		<g transform="matrix(-1 0 0 1 148.14815 0)" id="u3Im9DLwxYLlEYSnxm3Qk"  >
<path style="stroke: none; stroke-width: 0; stroke-dasharray: none; stroke-linecap: butt; stroke-dashoffset: 0; stroke-linejoin: miter; stroke-miterlimit: 4; fill: rgb(145,7,7); fill-rule: nonzero; opacity: 0.7;" vector-effect="non-scaling-stroke"  transform=" translate(0, -0.000005)" d="M 0 164.51938 L -148.14815 93.13121000000001 L -148.14812999999998 93.1312 L 148.14815000000004 93.1312 L 148.14815000000004 235.90757 z M 148.14815 -235.90756 L 148.14815 93.13120000000004 L -148.14813000000004 93.13120000000004 L -148.14815000000004 93.13118000000003 L -5.684341886080802e-14 -71.38816999999997 z" stroke-linecap="round" />
</g>
</g>
</g>
</g>
</g>
</g>
</g>
</g>
</g>
</svg>